<svg viewBox="0 0 120 120" fill="none" xmlns="http://www.w3.org/2000/svg">
  <!-- Body -->
  <ellipse cx="60" cy="70" rx="40" ry="35" fill="#FFD93D"/>
  <ellipse cx="60" cy="70" rx="40" ry="35" fill="url(#bodyGradient)"/>

  <!-- Belly -->
  <ellipse cx="60" cy="78" rx="28" ry="22" fill="#FFF3C4"/>

  <!-- Left Wing -->
  <ellipse cx="28" cy="68" rx="12" ry="18" fill="#FFCC00" transform="rotate(-15 28 68)"/>

  <!-- Right Wing -->
  <ellipse cx="92" cy="68" rx="12" ry="18" fill="#FFCC00" transform="rotate(15 92 68)"/>

  <!-- Head feather tuft -->
  <path d="M55 38 Q60 28 65 38" stroke="#FFCC00" stroke-width="4" fill="none" stroke-linecap="round"/>
  <path d="M50 42 Q55 32 60 42" stroke="#FFCC00" stroke-width="3" fill="none" stroke-linecap="round"/>
  <path d="M60 42 Q65 32 70 42" stroke="#FFCC00" stroke-width="3" fill="none" stroke-linecap="round"/>

  <!-- Left Eye -->
  <circle cx="45" cy="58" r="10" fill="white"/>
  <circle cx="47" cy="58" r="6" fill="#3D3428"/>
  <circle cx="49" cy="56" r="2" fill="white"/>

  <!-- Right Eye -->
  <circle cx="75" cy="58" r="10" fill="white"/>
  <circle cx="73" cy="58" r="6" fill="#3D3428"/>
  <circle cx="75" cy="56" r="2" fill="white"/>

  <!-- Beak -->
  <path d="M55 68 L60 78 L65 68 Z" fill="#FF8A65"/>
  <path d="M55 68 L60 72 L65 68" fill="#FF7043"/>

  <!-- Feet -->
  <path d="M48 102 L45 108 M48 102 L48 110 M48 102 L51 108" stroke="#FF8A65" stroke-width="3" stroke-linecap="round"/>
  <path d="M72 102 L69 108 M72 102 L72 110 M72 102 L75 108" stroke="#FF8A65" stroke-width="3" stroke-linecap="round"/>

  <!-- Blush -->
  <ellipse cx="32" cy="70" rx="6" ry="4" fill="#FFB74D" opacity="0.5"/>
  <ellipse cx="88" cy="70" rx="6" ry="4" fill="#FFB74D" opacity="0.5"/>

  <defs>
    <radialGradient id="bodyGradient" cx="0.5" cy="0.3" r="0.7">
      <stop offset="0%" stop-color="#FFE082"/>
      <stop offset="100%" stop-color="#FFD93D"/>
    </radialGradient>
  </defs>
</svg>
